<?xml version="1.0" encoding="UTF-8"?>
<svg width="162px" height="25px" viewBox="0 0 162 25" version="1.1" xmlns="http://www.w3.org/2000/svg" xmlns:xlink="http://www.w3.org/1999/xlink">
    <!-- Generator: Sketch 52.5 (67469) - http://www.bohemiancoding.com/sketch -->
    <title>Social Media Icons</title>
    <desc>Created with Sketch.</desc>
    <g id="Landing-Page" stroke="none" stroke-width="1" fill="none" fill-rule="evenodd">
        <g id="00-Landingpage" transform="translate(-1158.000000, -3602.000000)" fill="#F9F9F9">
            <g id="R5-FOOTER" transform="translate(0.000000, 3564.000000)">
                <g id="Social-Media-Icons" transform="translate(1158.000000, 38.000000)">
                    <g id="ICO/FB" transform="translate(50.666667, 1.000000)">
                        <path d="M7.31470568,23 L2.43724175,23 L2.43724175,11.4985483 L0,11.4985483 L0,7.53553396 L2.43724175,7.53553396 L2.43724175,5.15627367 C2.43724175,1.92344105 3.81270744,0 7.72302378,0 L10.9776468,0 L10.9776468,3.96446604 L8.94350742,3.96446604 C7.42125584,3.96446604 7.32066653,4.5182719 7.32066653,5.55184928 L7.31396058,7.53553396 L11,7.53553396 L10.5685836,11.4985483 L7.31396058,11.4985483 L7.31396058,23 L7.31470568,23 Z"></path>
                    </g>
                    <g id="ICO/TW" transform="translate(141.000000, 4.000000)">
                        <path d="M18.526149,2.84573162 C19.4160944,2.28412538 20.0989611,1.39361548 20.41944,0.332803698 C19.5861948,0.85410949 18.6654341,1.23111368 17.6830428,1.43521595 C16.899102,0.551206125 15.7786582,0 14.5386512,0 C12.1597112,0 10.231907,2.03452261 10.231907,4.54355048 C10.231907,4.89975444 10.2676528,5.2468583 10.3416094,5.57836198 C6.762106,5.38855987 3.58813171,3.58153979 1.46187709,0.83070923 C1.09086107,1.50411671 0.878851911,2.28412538 0.878851911,3.11613462 C0.878851911,4.69175213 1.63937313,6.08276759 2.7955626,6.89917666 C2.08927628,6.8757764 1.42489875,6.6690741 0.843106181,6.33107035 L0.843106181,6.38697097 C0.843106181,8.58919544 2.32717028,10.4261158 4.30058109,10.8421205 C3.93819334,10.9487217 3.55854904,11.0020222 3.1641134,11.0020222 C2.88677584,11.0020222 2.61560134,10.9747219 2.35428773,10.9214213 C2.90156718,12.7258414 4.49286846,14.041456 6.37876387,14.0765564 C4.90332805,15.29597 3.04578271,16.021378 1.02799789,16.021378 C0.680401479,16.021378 0.336502905,16.0018778 0,15.9589773 C1.9068498,17.2472916 4.17115689,18 6.60433175,18 C14.5300229,18 18.8614193,11.0761231 18.8614193,5.07135635 C18.8614193,4.87375415 18.858954,4.67745197 18.8503258,4.48374982 C19.6921993,3.8428427 20.4243705,3.0420338 21,2.13072367 C20.2271527,2.49212769 19.3963726,2.73653041 18.526149,2.84573162 Z"></path>
                    </g>
                    <g id="ICO/INST" transform="translate(90.333333, 2.000000)">
                        <path d="M10.9999782,1.98202211 C13.9371191,1.98202211 14.2849947,1.99320024 15.4449003,2.04612169 C16.5173894,2.09506967 17.0998311,2.27426907 17.4874851,2.42486816 C18.0008931,2.62441524 18.3673699,2.86282379 18.752273,3.24772696 C19.1371762,3.63263014 19.3755848,3.99910686 19.5750882,4.51251486 C19.7257309,4.9001689 19.9049303,5.48261059 19.9538783,6.55505606 C20.0067998,7.71500533 20.0179779,8.06288095 20.0179779,11.0000218 C20.0179779,13.9371627 20.0067998,14.2850383 19.9538783,15.4449439 C19.9049303,16.5174331 19.7257309,17.0998748 19.5750882,17.4875288 C19.3755848,18.0009368 19.1371762,18.3674135 18.752273,18.7523167 C18.3673699,19.1372199 18.0008931,19.3756284 17.4874851,19.5751318 C17.0998311,19.7257746 16.5173894,19.904974 15.4449003,19.953922 C14.2851693,20.0068434 13.9372937,20.0180216 10.9999782,20.0180216 C8.06266263,20.0180216 7.71478701,20.0068434 6.55505606,19.953922 C5.48256692,19.904974 4.90012524,19.7257746 4.51251486,19.5751318 C3.9990632,19.3756284 3.63258647,19.1372199 3.2476833,18.7523167 C2.86278012,18.3674135 2.62437158,18.0009368 2.42486816,17.4875288 C2.2742254,17.0998748 2.09502601,16.5174331 2.04607803,15.4449876 C1.99315657,14.2850383 1.98197844,13.9371627 1.98197844,11.0000218 C1.98197844,8.06288095 1.99315657,7.71500533 2.04607803,6.55509972 C2.09502601,5.48261059 2.2742254,4.9001689 2.42486816,4.51251486 C2.62437158,3.99910686 2.86278012,3.63263014 3.2476833,3.24772696 C3.63258647,2.86282379 3.9990632,2.62441524 4.51251486,2.42486816 C4.90012524,2.27426907 5.48256692,2.09506967 6.55501239,2.04612169 C7.71496166,1.99320024 8.06283728,1.98202211 10.9999782,1.98202211 M10.9999782,0 C13.9874206,0 14.362019,0.0126627249 15.5352423,0.0661954863 C16.7061077,0.119640918 17.5056933,0.305564652 18.205418,0.577507587 C18.9287652,0.858620081 19.5422088,1.23474668 20.153731,1.84626896 C20.7652533,2.45779125 21.1413799,3.07123477 21.4224924,3.79458202 C21.6944353,4.49430674 21.8803591,5.29389232 21.9338045,6.46475773 C21.9873373,7.63798103 22,8.01257937 22,11.0000218 C22,13.9874643 21.9873373,14.3620626 21.9338045,15.5352859 C21.8803591,16.7061513 21.6944353,17.5057369 21.4224924,18.2054616 C21.1413799,18.9288089 20.7652533,19.5422524 20.153731,20.1537747 C19.5422088,20.765297 18.9287652,21.1414236 18.205418,21.4225361 C17.5056933,21.694479 16.7061077,21.8804027 15.5352423,21.9338482 C14.362019,21.9873809 13.9874206,22 10.9999782,22 C8.0125357,22 7.63798103,21.9873809 6.46471407,21.9338482 C5.29384865,21.8804027 4.49426307,21.694479 3.79453836,21.4225361 C3.07119111,21.1414236 2.45774758,20.765297 1.8462253,20.1537747 C1.23470301,19.5422524 0.858576416,18.9287652 0.577463922,18.2054616 C0.305520988,17.5057369 0.119597254,16.7061513 0.0661518217,15.5352859 C0.0126190604,14.3620626 0,13.9874643 0,11.0000218 C0,8.01257937 0.0126190604,7.63798103 0.0661518217,6.46475773 C0.119597254,5.29389232 0.305520988,4.49430674 0.577463922,3.79458202 C0.858576416,3.07123477 1.23470301,2.45779125 1.8462253,1.84626896 C2.45774758,1.23474668 3.07119111,0.858620081 3.79453836,0.577507587 C4.49426307,0.305564652 5.29384865,0.119640918 6.46471407,0.0661954863 C7.63798103,0.0126627249 8.0125357,0 10.9999782,0 Z M11.0218254,5.36904762 C7.89989627,5.36904762 5.36904762,7.89989627 5.36904762,11.0218254 C5.36904762,14.1437545 7.89989627,16.6746032 11.0218254,16.6746032 C14.1437545,16.6746032 16.6746032,14.1437545 16.6746032,11.0218254 C16.6746032,7.89989627 14.1437545,5.36904762 11.0218254,5.36904762 Z M11.0218254,14.6911823 C8.99531997,14.6911823 7.35246845,13.0483308 7.35246845,11.0218254 C7.35246845,8.99531997 8.99531997,7.35246845 11.0218254,7.35246845 C13.0483308,7.35246845 14.6911823,8.99531997 14.6911823,11.0218254 C14.6911823,13.0483308 13.0483308,14.6911823 11.0218254,14.6911823 Z M18.1587302,5.1071212 C18.1587302,4.38388442 17.5724648,3.79761905 16.849228,3.79761905 C16.1259912,3.79761905 15.5396825,4.38388442 15.5396825,5.1071212 C15.5396825,5.83035798 16.1259912,6.41666667 16.849228,6.41666667 C17.5724648,6.41666667 18.1587302,5.83035798 18.1587302,5.1071212 Z"></path>
                    </g>
                    <g id="ICO/Youtube">
                        <path d="M4.92551145,18.0171834 L4.94212599,13.9659484 L5.69927437,13.9580095 L6.45563157,13.9484828 L6.44692871,13.324483 L6.43743469,12.6996894 L4.25222695,12.6909565 L2.06860156,12.6822237 L2.06860156,13.3157502 L2.06860156,13.9484828 L2.80755305,13.9580095 L3.54650454,13.9659484 L3.5552074,17.9838399 C3.55916324,20.1932436 3.5702396,22.0207849 3.57894246,22.0438078 C3.59080999,22.0763574 3.7442967,22.0842963 4.25143579,22.0771513 L4.90889691,22.0684185 L4.92551145,18.0171834 Z M17.5296188,17.7321759 C17.4987632,17.6511988 17.5414863,16.7151992 17.5826271,16.5794435 C17.6783585,16.2602986 17.8816888,16.1046956 18.2021121,16.1046956 C18.4687359,16.1046956 18.638046,16.2079017 18.7519743,16.4397184 C18.8239706,16.5865886 18.8310912,16.6493061 18.8421675,17.1923288 L18.8532439,17.7837789 L18.2005298,17.7837789 C17.6395912,17.7837789 17.5462333,17.7766339 17.5296188,17.7321759 L17.5296188,17.7321759 Z M18.7480185,22.0969986 C19.3872827,21.9167849 19.829546,21.4785561 19.9964825,20.8601136 C20.0241734,20.7545259 20.0566114,20.4536405 20.0676877,20.1924497 L20.0866758,19.7177018 L19.4711466,19.7177018 L18.8548262,19.7177018 L18.839794,20.1432284 C18.8223883,20.6267091 18.7725447,20.7926327 18.5969052,20.9474418 C18.4101895,21.1117776 18.0668223,21.123686 17.8437127,20.9728464 C17.5778801,20.7926327 17.5122131,20.4885718 17.5256629,19.5009691 L17.535157,18.8007556 L18.8097296,18.7928167 L20.0843023,18.78329 L20.0676877,17.7417026 C20.0471173,16.5794435 20.0233823,16.4031993 19.8287548,15.9903751 C19.4576967,15.2083907 18.4299687,14.8138259 17.5762977,15.1258258 C16.9322865,15.361612 16.5517344,15.7863446 16.3990388,16.4436879 C16.3452393,16.6755046 16.33891,16.8835045 16.33891,18.5840229 C16.33891,20.6695793 16.3460305,20.7545259 16.5580637,21.1816402 C16.9370335,21.9413956 17.8856447,22.338342 18.7480185,22.0969986 L18.7480185,22.0969986 Z M13.7011538,20.909335 C13.7794795,20.8561441 13.8309055,20.7823121 13.8712551,20.6671976 C13.922681,20.5155641 13.927428,20.3226482 13.9203075,18.5340077 C13.913187,16.6699473 13.9092312,16.5603901 13.8491023,16.4381306 C13.6948245,16.1261307 13.3063607,16.0959628 12.9503348,16.3690619 L12.8332418,16.4579779 L12.8332418,18.5840229 L12.8332418,20.7100679 L12.9495436,20.7989839 C13.2130028,21.0006326 13.5017793,21.0427089 13.7011538,20.909335 L13.7011538,20.909335 Z M14.4725432,22.1097009 C14.6663795,22.0533345 14.9005654,21.8223117 15.0057909,21.5865255 C15.20833,21.1348005 15.2091212,21.123686 15.2091212,18.5840229 C15.2091212,16.4992604 15.2027919,16.2420391 15.1513659,16.0165735 C14.9844293,15.294925 14.6204918,14.9797495 14.0081272,15.0257953 C13.6655512,15.0527877 13.3957627,15.1893372 13.0721748,15.5029249 C12.9313467,15.6386806 12.8055509,15.7506194 12.7913099,15.7506194 C12.7786512,15.7506194 12.7667837,15.0599327 12.7667837,14.2168185 L12.7667837,12.6830176 L12.1686602,12.6830176 L11.5705367,12.6830176 L11.5705367,17.383657 L11.5705367,22.0850902 L12.1686602,22.0850902 L12.7667837,22.0850902 L12.7667837,21.768327 C12.7667837,21.5579454 12.7794424,21.4515637 12.8039686,21.4515637 C12.8237478,21.4515637 12.9582465,21.5627087 13.1030303,21.6992583 C13.5682375,22.138281 13.9709423,22.2589527 14.4725432,22.1097009 L14.4725432,22.1097009 Z M8.10600931,22.0787391 C8.34494224,21.9898231 8.6258071,21.7945254 8.86236652,21.553182 C8.97075662,21.442037 9.07914672,21.3515333 9.10288178,21.3515333 C9.13452852,21.3515333 9.14560488,21.442037 9.14560488,21.7183117 L9.14560488,22.0850902 L9.74372836,22.0850902 L10.3418518,22.0850902 L10.3418518,18.6006946 L10.3418518,15.117093 L9.74372836,15.117093 L9.14560488,15.117093 L9.14560488,17.8044202 L9.14560488,20.4925412 L8.88768391,20.7489686 C8.68356241,20.9529991 8.5981162,21.0149227 8.47152922,21.049854 C8.25791369,21.1093959 8.12183269,21.0681135 8.03401297,20.91648 C7.96755481,20.8037472 7.96597247,20.7513503 7.95647845,17.9592293 L7.94777559,15.117093 L7.34965211,15.117093 L6.75311097,15.117093 L6.75311097,18.1346796 C6.75311097,21.4221897 6.75627564,21.4936401 6.93982677,21.8104033 C7.1407836,22.1565406 7.61073776,22.2653039 8.10600931,22.0787391 L8.10600931,22.0787391 Z M8.61393957,24.9859746 C7.83701198,24.9724784 6.91767404,24.9510433 6.57035102,24.938341 C4.23877709,24.8541884 2.63824297,24.7644785 2.31861084,24.6993793 C1.86289772,24.6072877 1.35338512,24.2976695 1.05748806,23.9332727 C0.584369221,23.3497615 0.331195262,22.6416091 0.208564125,21.5515942 C-0.07546541,19.0174884 -0.069136061,16.0618254 0.225969835,13.6166356 C0.355721489,12.5448803 0.677727119,11.7708348 1.21809529,11.2309876 C1.52665105,10.9221633 1.82333928,10.7506825 2.21813243,10.6490642 C3.07417688,10.4291559 9.77221043,10.2544995 13.8467288,10.3450033 C16.2004555,10.3974002 18.7432714,10.5069574 19.4189294,10.583965 C20.2931708,10.6839955 20.9071176,11.1381022 21.3319752,11.9994759 C21.6531896,12.6496741 21.7552504,13.1561777 21.8857932,14.716971 C21.987854,15.9522682 22.0131714,16.7223442 21.9941833,18.1489696 C21.9728218,19.8558392 21.8644317,21.3594722 21.7022421,22.2033802 C21.5313497,23.0957158 21.1278537,23.8562651 20.6048912,24.2682955 C20.2021864,24.5866465 19.7725818,24.7287533 19.0961326,24.7668601 C18.8951758,24.7787685 18.6412107,24.7946464 18.5312383,24.8033792 C18.1419833,24.8335471 16.0548805,24.9176998 14.9100595,24.9502494 C13.2090469,24.997883 10.2326706,25.0145547 8.61393957,24.9859746 Z M6.51487991,9.50082801 C6.48639784,9.45398834 6.49114485,6.71108866 6.51962692,6.32287507 C6.55681185,5.82510428 6.47294797,5.43292123 6.11692209,4.4310285 C6.00141147,4.10632633 5.79254296,3.47597544 5.65329728,3.03139546 C4.64613962,-0.183076544 4.69914792,0.00507605294 4.79567049,0.00428216013 C5.45946097,-0.00127508958 6.27832049,0.0026943745 6.28781452,0.0122210883 C6.29414386,0.0185722308 6.50934173,0.802938332 6.76647153,1.7564036 C7.0243925,2.70907498 7.2387992,3.5021739 7.24433738,3.51963954 C7.24908439,3.5355174 7.4001976,2.98058632 7.57979288,2.28593011 C7.95559797,0.828342902 8.16683999,0.0241294805 8.17475168,0.0169844452 C8.19136622,0.00110658887 8.37808202,-0.00206898239 8.98965536,0.00110658887 L9.66610453,0.00507605294 L9.65107233,0.113839369 C9.6392048,0.201961471 9.17716232,1.75799139 8.6937583,3.33863198 C8.64154117,3.5132884 8.50625133,3.96342563 8.39469656,4.33973082 C8.28314178,4.71524212 8.14864312,5.16140989 8.09484365,5.33130295 L7.99752991,5.64092115 L7.99752991,7.57166847 C7.99752991,9.38253798 7.99357407,9.50400358 7.9397746,9.51829365 C7.81793463,9.55163715 6.53624146,9.5357593 6.51487991,9.50082801 Z M15.2572932,9.61673636 C14.92342,9.57227837 14.7280014,9.44287384 14.5942939,9.17691974 C14.4265661,8.84348476 14.4265661,8.84507255 14.4265661,5.52263112 L14.4265661,2.42247967 L15.1006418,2.42247967 L15.7739263,2.42247967 L15.7881673,5.28049381 C15.8031995,8.38461471 15.7992437,8.31237047 15.9843772,8.35921014 C16.1544784,8.40128646 16.3427765,8.30998879 16.5769625,8.07023316 L16.8016543,7.84079814 L16.8103572,5.13124196 L16.8182689,2.42247967 L17.4915534,2.41295296 L18.1648379,2.40501403 L18.1648379,5.95292102 L18.1648379,9.50162191 L18.0730623,9.52067533 C17.9630899,9.54369822 16.9424824,9.54211044 16.8602008,9.51829365 C16.8103572,9.50479748 16.8024455,9.45875169 16.8024455,9.18088921 L16.8024455,8.85856873 L16.6109827,9.04592743 C16.1710929,9.47542344 15.6963918,9.67548443 15.2572932,9.61673636 L15.2572932,9.61673636 Z M11.8647621,8.26156133 C12.0957834,8.08531712 12.0973657,8.07023316 12.1092332,6.07518052 C12.1195184,4.52470785 12.1139803,4.26113543 12.0673013,4.04995995 C12.0040078,3.76415853 11.8932442,3.62919675 11.676464,3.56965479 C11.3963903,3.49502887 11.1400517,3.65539522 11.0498585,3.96263174 C10.981818,4.19921179 10.9826091,7.71615696 11.0514408,7.95273702 C11.1036579,8.13056901 11.2705945,8.32507275 11.3940168,8.35206511 C11.554624,8.3862025 11.751625,8.34809565 11.8655533,8.26156133 L11.8647621,8.26156133 Z M11.3370527,9.61514858 C10.7341822,9.54211044 10.1803641,9.18644646 9.91374031,8.70058406 C9.64236947,8.20598883 9.61705208,7.94717977 9.63287545,5.76873789 C9.64553415,4.08171566 9.65028116,3.97612791 9.71673933,3.7339906 C9.87576422,3.15841831 10.1835288,2.76623526 10.6606035,2.52886131 C11.3156911,2.20415915 12.0222047,2.24623547 12.6401074,2.64794523 C13.0341094,2.90278483 13.2730423,3.27273888 13.4012116,3.8229066 C13.4573846,4.0658378 13.4629228,4.25240261 13.4629228,5.95609659 C13.4629228,8.02815684 13.4534287,8.14803466 13.2413955,8.5965841 C13.0380652,9.02925568 12.5776051,9.41032423 12.0973657,9.54449212 C11.8853325,9.60244629 11.5174391,9.63737758 11.3370527,9.61514858 L11.3370527,9.61514858 Z"></path>
                    </g>
                </g>
            </g>
        </g>
    </g>
</svg>